<?xml version="1.0" encoding="UTF-8"?>
<svg width="50px" height="39px" viewBox="0 0 50 39" version="1.1" xmlns="http://www.w3.org/2000/svg" xmlns:xlink="http://www.w3.org/1999/xlink">
    <title>编组</title>
    <g id="empty" stroke="none" stroke-width="1" fill="none" fill-rule="evenodd">
        <g id="empty" transform="translate(-1507.000000, -868.000000)" fill="#CACED5" fill-rule="nonzero">
            <g id="编组" transform="translate(1507.000000, 868.273097)">
                <path d="M49.2319285,13.4897228 C48.8897224,12.1531006 47.614541,11.1895799 45.4998112,10.6301443 C45.2415264,10.5645055 44.9823667,10.5023884 44.7224036,10.4438102 C44.1937751,10.3192263 43.6960013,10.6611277 43.6025743,11.1895799 C43.509363,11.7180321 43.8204987,12.2152842 44.3491272,12.3086679 C44.5668359,12.3396514 44.8156149,12.401835 45.0022531,12.4640186 C46.3706458,12.8369034 47.2104099,13.3653556 47.3968324,13.9871916 C47.6768976,15.0438793 46.2772188,16.7533864 43.3537952,18.6492277 C43.260584,17.5303564 43.0739457,16.3802849 42.7630259,15.2302135 C41.3946332,10.1016921 37.8491541,5.8745078 33.0908502,3.57458153 C29.2031651,1.70950707 24.7557811,1.30563876 20.5573919,2.4245101 C12.7822374,4.5069021 7.55744579,11.3449306 7.15309894,18.9911291 C5.47357065,19.9856333 4.1362484,20.9803541 3.11006177,21.9750749 C2.51907667,22.5345105 2.0836594,23.1251464 1.74166911,23.7157821 C1.39946307,24.3062013 1.21304061,24.9590206 1.21304061,25.5806399 C1.21304061,25.8291576 1.24411102,26.077892 1.30625184,26.3266263 C1.92830735,28.6577527 5.34928901,29.683457 10.0454521,29.7456406 C11.3517039,31.7346489 13.0310165,33.4753561 15.0214646,34.8429618 C18.0479771,36.9104561 21.6241832,38.015218 25.2846254,38.0134605 C26.8396563,38.0134605 28.4257575,37.8269076 29.9807885,37.3916224 C37.7557272,35.3094471 43.0118049,28.4402185 43.3850814,20.79402 C47.3968324,18.4626769 49.8537683,15.8518327 49.2319285,13.4897228 C49.2319285,13.5207063 49.2319285,13.4897228 49.2319285,13.4897228 L49.2319285,13.4897228 Z M3.14113218,25.8603578 C3.14113218,25.8291576 3.14113218,25.8291576 3.14113218,25.8603578 C3.11006177,25.7671907 3.11006177,25.6740237 3.11006177,25.5806399 C3.11006177,25.3319056 3.203273,25.0212043 3.42098166,24.6481027 C3.7942581,23.9642999 4.60295186,23.0939462 5.75342008,22.1926091 C6.18905313,21.8819078 6.65532507,21.5400064 7.18416935,21.198105 C7.27738058,22.3169763 7.46401882,23.4670477 7.77515445,24.6171192 C8.08607433,25.7359906 8.49042119,26.8238784 8.98797927,27.8495827 C5.53571142,27.6632486 3.45205202,26.886062 3.14113218,25.8603578 L3.14113218,25.8603578 Z M29.4519442,35.5579648 C24.8802785,36.8012033 19.9974772,35.9620498 16.0787217,33.2578219 C14.6481882,32.2633178 13.3730067,31.0820462 12.3468201,29.683457 C16.8563449,29.4971229 22.1745635,28.5955692 27.2440031,27.2279635 C32.3132269,25.8603578 37.351596,23.9952833 41.3635628,21.9131079 C40.554869,28.2846512 36.0142738,33.8172575 29.4519442,35.5579648 Z M26.7462293,25.4562727 C20.4950353,27.1347964 15.145962,27.8495827 11.1339953,27.9117663 C10.4760146,26.7210536 9.95435105,25.4593856 9.57896437,24.1508506 C7.2465259,15.5101479 12.4089609,6.62049427 21.05495,4.28936787 C22.454413,3.916483 23.8538761,3.72993218 25.253555,3.72993218 C27.6481342,3.72993218 30.0739997,4.25838438 32.2508703,5.31507215 C36.5739727,7.33549725 39.7151049,11.1585965 40.959216,15.7276822 C41.3324924,17.0640877 41.4878444,18.4316934 41.5189149,19.7683157 C38.004722,21.7263405 32.9974233,23.7467656 26.7462293,25.4562727 Z M22.2677748,8.01930005 C18.2868785,9.01380419 15.0836055,11.9667665 13.7152128,15.8518327 C13.5598607,16.3493014 13.8086398,16.9087371 14.3061979,17.0640877 C14.3994091,17.0952879 14.5239065,17.1262714 14.6171178,17.1262714 C15.0214646,17.1262714 15.3947411,16.877537 15.5190227,16.5046521 C16.6697068,13.210005 19.4067079,10.7542948 22.7655487,9.88415782 C23.2631068,9.75979062 23.5740267,9.2315551 23.4495292,8.73408639 C23.2941772,8.20585088 22.7655487,7.8949329 22.2677748,8.01908342 L22.2677748,8.01930005 Z M14.897183,20.2965512 C14.897183,19.7683157 14.4304795,19.3642307 13.901851,19.3642307 C13.3732225,19.3642307 12.9688756,19.8304993 12.9688756,20.3587348 C12.9688756,20.79402 13.0310164,21.2600719 13.0931573,21.695357 C13.1555139,22.1616257 13.5596449,22.5035271 14.0263484,22.5035271 L14.1817005,22.5035271 C14.710329,22.4413435 15.0525351,21.9440914 14.9903942,21.4156392 L14.8969672,20.2965512 L14.897183,20.2965512 Z M43.4161518,0 C41.3944174,0 39.7151049,1.64754018 39.7151049,3.69894873 C39.7151049,5.75035728 41.3635628,7.39746414 43.4161518,7.39746414 C45.4687408,7.39746414 47.1169829,5.75035728 47.1169829,3.69894873 C47.1169829,1.64754018 45.4376704,0 43.4161518,0 Z M43.4161518,5.71915715 C42.2963224,5.71915715 41.3944174,4.81782008 41.3944174,3.69894873 C41.3944174,2.57986075 42.2963224,1.67852363 43.4161518,1.67852363 C44.5357654,1.67852363 45.4376704,2.5798607 45.4376704,3.69894873 C45.4376704,4.81782008 44.504695,5.71915715 43.415936,5.71915715 L43.4161518,5.71915715 Z M1.92852309,14.3286597 C1.99066391,14.5149938 2.17730215,14.6395776 2.39501081,14.6395776 C2.61271947,14.6395776 2.76828725,14.5152104 2.86149848,14.3286597 L3.26584534,13.1164047 L4.47867021,12.7123196 C4.66530846,12.6503527 4.78959005,12.4638019 4.78959005,12.2462677 C4.78959005,12.0285168 4.66530841,11.8731661 4.47867021,11.7799991 L3.26584534,11.375914 L2.86149848,10.163659 C2.79914188,9.97732489 2.61271942,9.85295769 2.39501081,9.85295769 C2.17708642,9.85295769 2.02173437,9.97710821 1.92852309,10.163659 L1.52417623,11.375914 L0.311135622,11.7799991 C0.124497375,11.8423993 0,12.0287334 0,12.2464843 C0,12.4640186 0.124497426,12.6193692 0.310919838,12.7125363 L1.52396045,13.1166213 L1.92830735,14.3288763 L1.92852309,14.3286597 Z M48.3302393,31.8594494 L47.1171987,31.4553644 L46.7128518,30.2431093 C46.650711,30.0567752 46.4640727,29.9321914 46.2463641,29.9321914 C46.0286555,29.9321914 45.8730877,30.0565586 45.7798764,30.2431093 L45.3755296,31.4553644 L44.1627047,31.8594494 C43.9760665,31.921633 43.8517848,32.1079671 43.8517848,32.325718 C43.8517848,32.5432522 43.9760665,32.6986029 44.1627047,32.79177 L45.3755296,33.195855 L45.7798764,34.40811 C45.842233,34.5944441 46.0286555,34.719028 46.2463641,34.719028 C46.4642885,34.719028 46.6196406,34.5946608 46.7128518,34.40811 L47.1171987,33.195855 L48.3302393,32.79177 C48.5166617,32.7295864 48.6411592,32.5432522 48.6411592,32.325718 C48.6722296,32.1079671 48.5166617,31.921633 48.3302393,31.8594494 Z" id="形状"></path>
            </g>
        </g>
    </g>
</svg>